<?xml version="1.0" standalone="no"?>
<svg viewBox="0 0 200 200" xmlns="http://www.w3.org/2000/svg">
  <path fill="#106EA5" d="M37.8,-61.8C51.4,-57.6,66.6,-52.4,72.2,-41.9C77.7,-31.5,73.8,-15.7,74.2,0.3C74.7,16.3,79.6,32.5,73.2,41.7C66.9,50.8,49.3,52.9,35.2,55.4C21.2,57.8,10.6,60.7,-1.8,63.9C-14.2,67,-28.5,70.5,-40.3,66.8C-52.2,63,-61.6,52,-70.3,39.7C-78.9,27.3,-86.8,13.7,-85.6,0.7C-84.5,-12.3,-74.3,-24.7,-65.8,-37.3C-57.3,-49.9,-50.5,-62.9,-39.9,-68.7C-29.2,-74.6,-14.6,-73.5,-1.2,-71.3C12.1,-69.2,24.2,-66,37.8,-61.8Z" transform="translate(100 100)" />
</svg>
