<svg id="visual" viewBox="0 0 900 100" width="900" height="100" xmlns="http://www.w3.org/2000/svg" xmlns:xlink="http://www.w3.org/1999/xlink" version="1.1"><path d="M0 24L21.5 27.8C43 31.7 86 39.3 128.8 44.2C171.7 49 214.3 51 257.2 48.8C300 46.7 343 40.3 385.8 40.2C428.7 40 471.3 46 514.2 51.2C557 56.3 600 60.7 642.8 60C685.7 59.3 728.3 53.7 771.2 50.8C814 48 857 48 878.5 48L900 48L900 101L878.5 101C857 101 814 101 771.2 101C728.3 101 685.7 101 642.8 101C600 101 557 101 514.2 101C471.3 101 428.7 101 385.8 101C343 101 300 101 257.2 101C214.3 101 171.7 101 128.8 101C86 101 43 101 21.5 101L0 101Z" fill="#dc8501" stroke-linecap="round" stroke-linejoin="miter"></path></svg>