<svg id="visual" viewBox="0 0 900 100" width="900" height="100" xmlns="http://www.w3.org/2000/svg" xmlns:xlink="http://www.w3.org/1999/xlink" version="1.1"><path d="M0 45L21.5 46.5C43 48 86 51 128.8 48C171.7 45 214.3 36 257.2 38.7C300 41.3 343 55.7 385.8 59.5C428.7 63.3 471.3 56.7 514.2 52C557 47.3 600 44.7 642.8 47.7C685.7 50.7 728.3 59.3 771.2 56.8C814 54.3 857 40.7 878.5 33.8L900 27L900 101L878.5 101C857 101 814 101 771.2 101C728.3 101 685.7 101 642.8 101C600 101 557 101 514.2 101C471.3 101 428.7 101 385.8 101C343 101 300 101 257.2 101C214.3 101 171.7 101 128.8 101C86 101 43 101 21.5 101L0 101Z" fill="#f5f5f5" stroke-linecap="round" stroke-linejoin="miter"></path></svg>