<svg id="visual" viewBox="0 0 900 100" width="900" height="100" xmlns="http://www.w3.org/2000/svg" xmlns:xlink="http://www.w3.org/1999/xlink" version="1.1"><path d="M0 30L21.5 34.3C43 38.7 86 47.3 128.8 47.5C171.7 47.7 214.3 39.3 257.2 39.3C300 39.3 343 47.7 385.8 46.5C428.7 45.3 471.3 34.7 514.2 31C557 27.3 600 30.7 642.8 37.5C685.7 44.3 728.3 54.7 771.2 55.7C814 56.7 857 48.3 878.5 44.2L900 40L900 101L878.5 101C857 101 814 101 771.2 101C728.3 101 685.7 101 642.8 101C600 101 557 101 514.2 101C471.3 101 428.7 101 385.8 101C343 101 300 101 257.2 101C214.3 101 171.7 101 128.8 101C86 101 43 101 21.5 101L0 101Z" fill="#dc8501" stroke-linecap="round" stroke-linejoin="miter"></path></svg>