<svg width="196" height="41" viewBox="0 0 196 41" fill="none" xmlns="http://www.w3.org/2000/svg">
    <path d="M50 16.657c-.38.496-.678.912-1 1.304-.728.886-1.447 1.782-2.218 2.626-.24.234-.555.368-.884.378-4.14.026-8.28.018-12.425.028-.255 0-.408-.068-.529-.312-.233-.478-.504-.94-.8-1.476-.365.516-.715.98-1.034 1.467a.653.653 0 0 1-.267.258.621.621 0 0 1-.36.066c-1.13-.05-2.285.042-3.398-.14-2.372-.389-3.953-1.85-4.763-4.209-.037-.109-.07-.22-.113-.328-.008-.024-.032-.04-.069-.081-.874 1.08-1.75 2.159-2.628 3.236-1.235 1.513-1.233 1.516-3.149 1.52H11c.1-.149.16-.256.236-.353l2.776-3.397c.169-.214.384-.384.628-.494.244-.11.51-.159.775-.141a42.465 42.465 0 0 0 3.406-.026c.175.002.348-.038.506-.116.158-.077.298-.191.408-.333.627-.82 1.261-1.635 1.903-2.443.339-.427.694-.839 1.043-1.257.28-.333.637-.4 1.034-.305.339.08.505.289.529.676.034.562.067 1.139.214 1.676.389 1.43 1.205 2.106 2.695 2.18 1.442.072 2.887.05 4.33.066a.335.335 0 0 0 .233-.07c.678-.734 1.296-1.52 1.347-2.59a2.86 2.86 0 0 0-.252-1.383 2.737 2.737 0 0 0-.874-1.075c-.637-.47-1.384-.807-2.114-1.125-.651-.285-1.346-.47-2.072-.704.708-1.442 1.39-2.84 2.086-4.226a.55.55 0 0 1 .326-.225l11.764-3.287c.098-.02.197-.034.296-.042-.076.171-.129.3-.19.425-.608 1.235-1.21 2.482-1.84 3.714a.874.874 0 0 1-.483.4c-1.985.568-3.976 1.109-5.966 1.665-.106.03-.21.066-.327.102 2.494 2.447 2.686 6.112.904 8.36L50 16.656zM141.268 6.282a.469.469 0 0 1 .168.018c2.08 1.151 3.761 2.686 4.358 5.138.465 1.903.172 3.675-1.163 5.193-1.191 1.353-2.34 2.747-3.517 4.116a.606.606 0 0 1-.385.213c-1.184.025-2.367.027-3.55.034-1.884.01-3.515-.599-4.783-2.08-.681-.792-1.062-1.755-1.372-2.817-.313.384-.594.732-.88 1.078-.888 1.078-1.757 2.17-2.682 3.21-.251.283-.669.554-1.022.572-1.046.054-2.114.081-3.149-.066-1.848-.264-3.238-2.011-3.248-3.933-.022-3.759-.037-7.518-.043-11.276 0-.153.013-.36.102-.455.963-1.085 1.94-2.156 2.914-3.227l.127.04v.446c.007 4.412.018 8.824.012 13.237 0 .339.085.493.408.589 1.286.377 2.593.392 3.907.289.217-.015.429-.078.621-.183.192-.106.36-.253.492-.43a761.103 761.103 0 0 1 2.493-3.195c.12-.148.248-.29.384-.424.456-.48.929-.57 1.477-.264.093.053.146.24.164.368.077.573.094 1.156.204 1.72.24 1.224.962 1.996 2.157 2.27.42.096.843.18 1.37.29-.205-.386-.361-.689-.525-.987-1.065-1.944-.944-3.367.471-5.049a138.173 138.173 0 0 1 3.289-3.788c.265-.293.688-.434 1.038-.645l.163-.002zm2.036 7.905-.095-.042c-.011-.12-.013-.24-.034-.36a2.307 2.307 0 0 0-.102-.384c-.476-1.264-1.448-2.045-2.549-2.665-.232-.133-.635-.094-.91 0-1.278.46-1.776 2.112-.973 3.217.269.37.622.748 1.019.931.875.404 1.8.69 2.71 1.01a.295.295 0 0 0 .279-.095c.233-.53.442-1.075.657-1.617l-.002.005zM57 20.812c1.048-1.268 2.056-2.578 3.173-3.778.306-.33.936-.417 1.43-.455.761-.057 1.535.034 2.303.041.32 0 .64-.048.96-.079.466-.044.789-.323 1.07-.688.719-.951 1.434-1.903 2.154-2.85.166-.216.324-.459.538-.609.228-.174.497-.28.778-.308.604-.016.656.096.736.715.068.576.174 1.148.32 1.708.365 1.326 1.092 1.97 2.407 2.023 1.522.06 3.048.027 4.571.024a.533.533 0 0 0 .329-.143c1.892-1.772 1.477-3.953-.276-5.152-.73-.5-1.625-.746-2.454-1.085-.413-.168-.846-.284-1.322-.442.113-.246.21-.47.313-.677.563-1.152 1.126-2.309 1.706-3.454a.717.717 0 0 1 .379-.344 2322.95 2322.95 0 0 1 11.612-3.216c.078-.02.16-.027.257-.043.006.061.025.107.01.136-.635 1.306-1.266 2.621-1.927 3.917a.942.942 0 0 1-.524.425c-1.948.572-3.902 1.12-5.855 1.675-.113.032-.225.075-.38.124 1.07 1.039 1.756 2.265 2.016 3.73.298 1.683-.015 3.208-1.126 4.518-1.14 1.342-2.265 2.697-3.408 4.037a.861.861 0 0 1-.47.31c-1.184.161-2.372.205-3.545-.077-2.365-.571-3.73-1.957-4.617-4.732-.083.13-.135.224-.2.306-1.025 1.273-2.055 2.54-3.073 3.818-.427.536-.901.806-1.623.785-1.929-.06-3.86-.024-5.79-.027h-.421L57 20.812z" fill="#A23C3F"/>
    <path d="M104 20.98c.501-.631.916-1.171 1.35-1.697.483-.587 1.011-1.14 1.465-1.748.454-.608 1.07-.85 1.795-.85 1.095 0 2.19.013 3.287.04.771.021 1.523-.032 2.322-.366-.147-.116-.247-.204-.356-.28-.899-.62-1.783-1.268-2.704-1.85-1.849-1.176-2.102-3.944-.707-5.566 1.225-1.424 2.501-2.806 3.77-4.194.447-.489.966-.617 1.518-.282 1.865 1.128 3.403 2.553 4.025 4.729.519 1.81.178 3.466-1.025 4.909-1.81 2.17-3.66 4.309-5.489 6.459a1.854 1.854 0 0 1-1.576.713c-2.408-.042-4.817-.017-7.226-.019l-.449.002zm13.222-9.448c-.172-.449-.272-.905-.504-1.278-.617-.991-1.543-1.642-2.604-2.105a.552.552 0 0 0-.429.022 3.22 3.22 0 0 0-1.529 1.889.883.883 0 0 0 .005.491 3.02 3.02 0 0 0 1.717 1.88c.782.346 1.614.59 2.432.853a.405.405 0 0 0 .359-.156c.202-.512.364-1.04.553-1.596zM14 7c-.19.65-.343 1.23-.54 1.794-.047.13-.236.246-.382.29-.73.218-1.47.41-2.205.612-.125.035-.248.08-.44.145.295.294.571.524.79.802.468.598.969 1.185 1.345 1.843.742 1.301.768 2.663-.169 3.859-1.173 1.492-2.448 2.9-3.697 4.328a.924.924 0 0 1-.572.243c-1.426.133-2.868.152-4.256-.278-1.79-.555-3.172-1.637-3.705-3.57C-.21 15.7.069 14.4.796 13.2a.527.527 0 0 1 .266-.226c.506-.148 1.018-.27 1.586-.416-.15.61-.301 1.157-.413 1.714-.047.212-.036.434.033.64.454 1.172 1.316 1.82 2.533 1.854 1.25.035 2.501-.012 3.752-.027.191 0 .39-.058.57-.02.59.12.9-.2 1.152-.68.29-.552.483-1.102.184-1.716-.438-.9-1.195-1.4-2.078-1.722-.726-.265-1.465-.492-2.233-.75.825-1.74 1.955-3.09 3.772-3.662C11.244 7.766 12.588 7.408 14 7zM90.198 11.9c.676-1.616 1.667-2.883 3.21-3.486C94.86 7.847 96.386 7.486 98 7c-.209.718-.373 1.33-.577 1.928-.034.098-.24.152-.376.191-.843.24-1.69.47-2.645.734.31.31.573.516.766.776.503.673 1.052 1.329 1.45 2.068.694 1.298.592 2.624-.287 3.796-.772 1.031-1.633 1.993-2.466 2.972-.395.464-.814.907-1.233 1.348a.55.55 0 0 1-.342.18c-1.071 0-2.148.035-3.214-.05-1.723-.138-3.145-.955-4.19-2.373-1.028-1.393-1.138-2.908-.451-4.528.308-.721.694-1.24 1.51-1.287.21-.013.416-.102.7-.176-.078.358-.135.668-.212.972-.45 1.788.491 3.187 2.296 3.25 1.624.058 3.253-.028 4.88-.055a.405.405 0 0 0 .251-.094c.924-.864.968-2.041.12-2.983-.586-.654-1.357-.96-2.145-1.232-.523-.177-1.054-.347-1.637-.537z" fill="#A23C3F"/>
    <path d="M98.113 40.663h-3.116l1.191-6.656-.077-.032L91.787 41l-.143-.038-2.183-7.309-1.188 7.013H87c.63-3.574 1.252-7.109 1.879-10.657h2.752l1.741 6.15c.753-1.211 1.48-2.372 2.2-3.536.484-.773.983-1.538 1.46-2.315a.537.537 0 0 1 .534-.306c.789.017 1.578 0 2.434 0l-1.887 10.661z" fill="#A23D40"/>
    <path d="M167.002.007c1.737-.079 3.163.49 4.488 1.304 2.162 1.33 3.302 3.292 3.435 5.681.133 2.39.048 4.812.049 7.218a.344.344 0 0 1-.044.162.373.373 0 0 1-.116.127c-.564.223-1.16.374-1.707.624-.547.25-1.025.576-1.547.877a7.111 7.111 0 0 1-.635-2.722c-.037-1.52-.007-3.042-.009-4.563 0-.345.099-.765-.072-1.013-.149-.217-.614-.238-.941-.348-1.868-.632-2.749-1.747-2.855-3.616-.024-.414-.042-.83-.046-1.244-.005-.814 0-1.627 0-2.487z" fill="#A23C3F"/>
    <path d="M182.966.009c0 1.469.092 2.895-.025 4.31-.118 1.501-1.19 2.406-2.608 2.959-.362.141-.755.213-1.188.334 0 .111-.019.255-.018.4.005 1.77.011 3.537.019 5.305 0 1.027-.182 1.73-.708 2.683a7.762 7.762 0 0 0-3.229-1.519c-.077-.016-.17-.183-.168-.277.053-2.69-.222-5.39.192-8.071.334-2.158 1.6-3.765 3.503-4.935 1.207-.74 2.521-1.225 3.999-1.197.066-.001.137.003.231.008zM187.929 37c-1.281-.776-2.577-1.497-3.801-2.322-1.264-.851-1.724-2.705-1.186-4.345.047-.145.1-.287.158-.454-.141-.087-.268-.171-.4-.247-1.594-.908-3.186-1.816-4.774-2.724A5.642 5.642 0 0 1 176 25.043c1.123-.454 2.164-1.038 2.92-2.043 1.48.852 2.952 1.687 4.413 2.534.865.503 1.753.979 2.57 1.55 3.118 2.175 4.046 6.656 2.026 9.916zM179 22.441a6.803 6.803 0 0 0 .269-3.441c.791 0 1.528.045 2.222.434 1.889 1.06 3.795 2.092 5.668 3.119.269-.242.522-.487.792-.712 1.15-.964 2.815-1.493 4.51-.55 1.16.642 2.332 1.259 3.539 1.907-.65.97-1.407 1.795-2.367 2.418-2.645 1.716-5.412 1.829-8.199.38-2.165-1.12-4.27-2.349-6.434-3.555zM154 23.22c1.221-.652 2.384-1.28 3.552-1.9 2.065-1.09 3.863-.24 5.026.973.088.091.169.19.274.31.139-.071.277-.137.411-.21l4.955-2.71c1.043-.571 1.321-.645 2.563-.683l.219 3.578-.915.498-5.302 2.885c-3.542 1.93-7.741 1.118-10.204-1.986-.187-.236-.359-.472-.579-.755zM162.064 37c-1.645-2.917-1.547-6.809 1.467-9.43.446-.39.927-.74 1.436-1.044 1.921-1.136 3.859-2.236 5.791-3.351.097-.056.195-.114.316-.175A7.045 7.045 0 0 0 174 25.018c-.448.706-.932 1.31-1.641 1.713-1.671.95-3.337 1.904-4.999 2.862-.158.09-.314.184-.493.288.406.932.538 1.874.286 2.852-.227.899-.711 1.625-1.507 2.114-1.177.718-2.368 1.42-3.582 2.153zM47 21c1.172-1.468 2.103-2.977 3.464-4.102a.768.768 0 0 1 .456-.15c1.655-.028 3.312-.053 4.968-.054a.636.636 0 0 0 .372-.081.666.666 0 0 0 .265-.281c.419-.721.79-1.45.712-2.334-.05-.58-.35-1.02-.698-1.436-.985-1.178-2.286-1.845-3.666-2.38l-.658-.25c.695-.81 1.344-1.58 2.017-2.329.672-.748.684-.731 1.578-.325 2.094.953 3.555 2.487 4.059 4.849.354 1.66-.01 3.178-1.074 4.469-1.162 1.41-2.378 2.779-3.58 4.15a.651.651 0 0 1-.405.244C52.254 21 49.693 21 47 21z" fill="#A23C3F"/>
    <path d="m62.256 35.285-.504 2.88c-.15.85-.295 1.698-.468 2.543-.023.116-.186.275-.289.277-.976.022-1.951.013-2.995.013.107-.675.198-1.306.311-1.935.519-2.884 1.04-5.769 1.565-8.653.038-.21.044-.373.358-.373 1.422 0 2.846-.073 4.265-.015.913.053 1.82.19 2.705.412.996.232 1.601.896 1.759 1.893.169 1.074-.239 1.939-1.157 2.52-.526.333-1.138.539-1.743.812.758 1.74 1.53 3.496 2.327 5.32-1.18 0-2.284.009-3.387-.015-.1 0-.23-.193-.288-.32-.727-1.65-1.443-3.303-2.164-4.953-.063-.144-.136-.283-.205-.424l-.09.018zm.835-4.606-.745 4.296c.555 0 1.027.027 1.496 0 1.721-.116 2.505-.958 2.433-2.578-.03-.696-.373-1.206-1.05-1.383-.676-.178-1.382-.224-2.134-.335zM37.497 41a7.46 7.46 0 0 1-2.748-.597c-2.018-.876-3.055-3.027-2.67-5.248.445-2.556 2.64-4.59 5.269-5.03 1.334-.227 2.643-.168 3.9.37 1.78.76 2.67 2.176 2.747 4.097.112 3.04-1.814 5.482-4.824 6.164-.548.124-1.116.165-1.674.244zm3.516-5.865-.103-.029c.007-.875-.018-1.744-.393-2.558-.41-.894-1.084-1.306-2.048-1.269-1.026.04-1.788.576-2.348 1.387-1.13 1.634-1.272 3.457-.729 5.317.376 1.29 1.649 1.93 2.935 1.622 1.07-.256 1.724-1.011 2.078-1.997.284-.794.411-1.646.608-2.473z" fill="#A23D40"/>
    <path d="M174.952 26c0 2.48.128 4.97-.034 7.438-.199 3.068-3.012 5.767-6.282 6.303-.505.083-1.013.16-1.636.259.064-1.556 0-3.087.221-4.583.253-1.768 1.628-2.631 3.352-3.025.33-.075.428-.173.421-.482-.021-.894.013-1.788-.019-2.681-.013-.332.128-.488.395-.66a107.886 107.886 0 0 0 3.066-2.037c.209-.14.357-.363.516-.532zM154 17.23c1.285-2.344 3.129-3.709 5.517-4.132 1.635-.29 3.166.066 4.603.998 1.926 1.248 3.863 2.474 5.88 3.764-.275.059-.469.097-.662.14-1.258.286-2.351.987-3.416 1.75-.226.161-.396.188-.64.026-.917-.607-1.848-1.184-2.829-1.806-.087.107-.183.227-.281.344-1.001 1.21-2.179 1.945-3.693 1.601-.469-.107-.924-.362-1.353-.623-.994-.608-1.969-1.26-2.95-1.898a1.612 1.612 0 0 1-.176-.165z" fill="#00AEBC"/>
    <path d="M179.003 17c.049-.216.09-.435.149-.647.325-1.166.381-2.364.312-3.565-.026-.455.109-.7.482-.904.739-.415 1.444-.898 2.177-1.328.268-.159.347-.297.232-.636a4.639 4.639 0 0 1-.202-2.26c.129-.795.394-1.553 1.014-2.01 1.248-.923 2.548-1.763 3.849-2.65a7.826 7.826 0 0 1 .976 4.161c-.108 2.69-1.128 4.864-3.306 6.286-1.871 1.222-3.788 2.365-5.686 3.543l.003.01zM180 17.77c.154-.1.307-.2.462-.298 1.872-1.186 3.728-2.403 5.618-3.55 3.375-2.052 7.946-.546 9.842 3.205.012.025.013.059.078.212-1.43.824-2.813 1.782-4.307 2.43-1.531.661-2.809-.187-3.878-1.433-.088-.102-.163-.216-.247-.323a.702.702 0 0 0-.113-.083c-.635.408-1.321.776-1.927 1.262-.811.644-1.488.72-2.345 0-.904-.763-2-1.188-3.183-1.422z" fill="#0FA6BB"/>
    <path d="M170.95 17c-1.851-1.038-3.71-2.056-5.548-3.121-.717-.42-1.456-.87-2.056-1.435-1.826-1.72-2.513-3.876-2.312-6.32A7.138 7.138 0 0 1 162.05 3c1.268.73 2.565 1.377 3.752 2.179 1.604 1.083 2.08 2.683 1.452 4.52-.157.456-.094.68.359.905.837.425 1.645.925 2.475 1.373.24.131.317.28.309.548-.04 1.304-.092 2.613.386 3.868l.217.567-.05.04zM183.982 40a8.021 8.021 0 0 1-4.232-1.16c-2.395-1.46-3.73-3.5-3.73-6.224a3473.28 3473.28 0 0 1-.02-5.591V26c.875 1.158 2.203 1.769 3.441 2.485.443.256.602.585.602 1.03 0 .798 0 1.596-.009 2.395 0 .33.107.476.482.565.534.125 1.051.31 1.538.55 1.317.635 1.871 1.74 1.926 3.062.044 1.28.002 2.564.002 3.913z" fill="#00AEBC"/>
    <path d="M174.027 16c2.203.012 3.995 1.866 3.973 4.118-.02 2.04-1.915 3.89-3.973 3.882-2.166-.01-4.051-1.887-4.027-4.008.027-2.187 1.859-4.003 4.027-3.992z" fill="#00AEBC"/>
    <path d="m76 38.715 1.17-.642c.302.343.562.665.856.955a2.396 2.396 0 0 0 1.66.704c.765.024 1.327-.36 1.672-1.06.253-.512.239-1.05-.158-1.46a6.66 6.66 0 0 0-1.22-.963c-.508-.321-1.062-.564-1.588-.855-1.493-.83-1.537-3.318-.238-4.327 1.478-1.156 4.232-1.588 6.09-.19.26.195.486.44.756.686l-1.05.76c-.328-.23-.616-.486-.945-.669-.645-.357-1.324-.481-2.041-.223a1.024 1.024 0 0 0-.505.34 1.101 1.101 0 0 0-.238.575.928.928 0 0 0 .071.562.873.873 0 0 0 .38.403c.482.286.972.56 1.45.855.453.28.932.535 1.337.881 1.381 1.183 1.365 3.511-.007 4.706-1.912 1.667-4.908 1.665-6.616-.02-.297-.28-.529-.636-.836-1.018zM50.36 30.004c-.236 1.148-.49 2.228-.675 3.318-.242 1.415-.5 2.832-.621 4.26-.139 1.627 1.313 2.58 2.84 1.952.929-.383 1.381-1.123 1.548-2.081l1.298-7.427H56l-.423 2.452c-.285 1.64-.557 3.281-.859 4.916-.349 1.885-1.49 3.043-3.35 3.446-1.053.23-2.101.23-3.134-.115-1.461-.486-2.303-1.55-2.23-3.1.065-1.379.295-2.741.512-4.101.173-1.08.43-2.146.67-3.216.026-.115.192-.29.297-.294.93-.024 1.86-.01 2.877-.01z" fill="#A23D40"/>
    <path d="M95 21.984c.722-.93 1.365-1.758 2.01-2.585.257-.328.533-.64.78-.98.508-.686 1.191-.992 1.992-1.016.534-.016 1.068.022 1.602.038.375.012.751.04 1.125.04.808 0 1.471-.264 1.927-1.046.654-1.124 1.362-2.213 2.056-3.312.155-.238.324-.465.504-.682.422-.522 1.02-.584 1.533-.168.513.416.632 1.016.232 1.555a338.144 338.144 0 0 1-4.098 5.522c-.582.757-1.203 1.469-1.813 2.203-.285.34-.644.45-1.083.447-2.05-.022-4.1-.012-6.152-.015L95 21.984z" fill="#A23C3F"/>
    <path d="M26.881 41h-3.015l1.593-9.681H23c.065-.419.114-.797.193-1.165.015-.07.156-.154.239-.154 2.492 0 4.984.007 7.476.02.023 0 .045.025.092.055-.058.397-.115.804-.177 1.235h-2.387L26.881 41z" fill="#A33D40"/>
    <path d="m115.852 41 1.599-9.665H115c.056-.412.085-.781.168-1.135.021-.09.218-.19.327-.19 1.069-.014 2.138-.01 3.206-.007l3.898.009c.119 0 .239.012.401.019l-.151 1.267h-2.398L118.877 41h-3.025zM70 40.996c.17-1.012.325-1.96.488-2.908.443-2.559.895-5.128 1.325-7.696.052-.31.163-.398.463-.392.889.02 1.778.007 2.724.007-.102.625-.193 1.218-.293 1.81-.504 2.946-1.006 5.895-1.508 8.846-.037.213-.072.34-.325.337-.933-.01-1.866-.004-2.874-.004zM108 40.992 109.87 30H113c-.229 1.426-.448 2.827-.681 4.228-.358 2.135-.734 4.265-1.081 6.4-.049.303-.157.377-.436.372-.919-.019-1.84-.008-2.802-.008zM38 11.945l2.086-1.922 1.907 1.673L43.928 10 46 12.03 43.88 14c-.615-.66-1.18-1.264-1.735-1.856l-1.953 1.703c-.86-.488-1.535-1.201-2.192-1.902z" fill="#A23D40"/>
    <path d="M42 1c-.193.424-.343.787-.525 1.134a.469.469 0 0 1-.276.16c-3.325.903-6.651 1.803-9.978 2.7a1.093 1.093 0 0 1-.221 0c.177-.39.325-.755.51-1.1.048-.091.201-.148.317-.18 3.254-.883 6.511-1.764 9.77-2.641.105-.031.214-.04.403-.073zM78 4.999a1.39 1.39 0 0 1 .036-.145c.496-1.053.495-1.056 1.607-1.353l9.077-2.424L89 1c-.2.425-.356.78-.54 1.122a.463.463 0 0 1-.272.164c-3.322.901-6.643 1.801-9.966 2.7A1.095 1.095 0 0 1 78 5z" fill="#A33F42"/>
    <path d="M129.587 11 127 9.043 129.527 7c.873.627 1.654 1.173 2.402 1.742.095.073.09.3.012.399-.183.26-.413.502-.684.716-.498.38-1.043.72-1.67 1.143z" fill="#A23D40"/>
    <path d="M141.51 6h-.174a2.644 2.644 0 0 0-.275-.314c-.672-.561-1.351-1.117-2.061-1.7L141.385 2 144 3.956c-.807.628-1.515 1.175-2.215 1.728a2.085 2.085 0 0 0-.275.316z" fill="#A33D40"/>
    <path d="M46 9.151c-.78.643-1.477 1.23-2.198 1.797a.53.53 0 0 1-.44.01c-.368-.224-.72-.467-1.053-.727-.43-.328-.839-.675-1.309-1.057.411-.377.792-.74 1.186-1.086.393-.347.784-.68 1.257-1.088L46 9.151z" fill="#A33E40"/>
    <path d="m179.05 17-.05.045v-.038h.057L179.05 17zM170.038 17l.038.083-.076-.043.038-.04z" fill="#A23C3F"/>
</svg>
