<svg id="visual" viewBox="0 0 900 100" width="900" height="100" xmlns="http://www.w3.org/2000/svg" xmlns:xlink="http://www.w3.org/1999/xlink" version="1.1"><rect x="0" y="0" width="900" height="100" fill="#f5f5f5"></rect><path d="M0 68L21.5 68C43 68 86 68 128.8 62C171.7 56 214.3 44 257.2 41.3C300 38.7 343 45.3 385.8 50.7C428.7 56 471.3 60 514.2 57.2C557 54.3 600 44.7 642.8 40.5C685.7 36.3 728.3 37.7 771.2 42.2C814 46.7 857 54.3 878.5 58.2L900 62L900 0L878.5 0C857 0 814 0 771.2 0C728.3 0 685.7 0 642.8 0C600 0 557 0 514.2 0C471.3 0 428.7 0 385.8 0C343 0 300 0 257.2 0C214.3 0 171.7 0 128.8 0C86 0 43 0 21.5 0L0 0Z" fill="#106ea5" stroke-linecap="round" stroke-linejoin="miter"></path></svg>