<svg id="visual" viewBox="0 0 900 90" width="900" height="90" xmlns="http://www.w3.org/2000/svg" xmlns:xlink="http://www.w3.org/1999/xlink" version="1.1"><rect x="0" y="0" width="900" height="90" fill="#fffafa"></rect><path d="M0 24L30 26.2C60 28.3 120 32.7 180 39.7C240 46.7 300 56.3 360 61.8C420 67.3 480 68.7 540 66.3C600 64 660 58 720 51.5C780 45 840 38 870 34.5L900 31L900 91L870 91C840 91 780 91 720 91C660 91 600 91 540 91C480 91 420 91 360 91C300 91 240 91 180 91C120 91 60 91 30 91L0 91Z" fill="#106ea5" stroke-linecap="round" stroke-linejoin="miter"></path></svg>