<svg id="visual" viewBox="0 0 900 100" width="900" height="100" xmlns="http://www.w3.org/2000/svg" xmlns:xlink="http://www.w3.org/1999/xlink" version="1.1"><rect x="0" y="0" width="900" height="100" fill="#fffafa"></rect><path d="M0 44L16.7 42.7C33.3 41.3 66.7 38.7 100 40.5C133.3 42.3 166.7 48.7 200 49.3C233.3 50 266.7 45 300 41C333.3 37 366.7 34 400 32.3C433.3 30.7 466.7 30.3 500 35.5C533.3 40.7 566.7 51.3 600 56.8C633.3 62.3 666.7 62.7 700 59.8C733.3 57 766.7 51 800 47.8C833.3 44.7 866.7 44.3 883.3 44.2L900 44L900 101L883.3 101C866.7 101 833.3 101 800 101C766.7 101 733.3 101 700 101C666.7 101 633.3 101 600 101C566.7 101 533.3 101 500 101C466.7 101 433.3 101 400 101C366.7 101 333.3 101 300 101C266.7 101 233.3 101 200 101C166.7 101 133.3 101 100 101C66.7 101 33.3 101 16.7 101L0 101Z" fill="#106ea5" stroke-linecap="round" stroke-linejoin="miter"></path></svg>