<svg id="visual" viewBox="0 0 900 100" width="900" height="100" xmlns="http://www.w3.org/2000/svg" xmlns:xlink="http://www.w3.org/1999/xlink" version="1.1"><path d="M0 48L25 49C50 50 100 52 150 57C200 62 250 70 300 64.5C350 59 400 40 450 39.3C500 38.7 550 56.3 600 58.3C650 60.3 700 46.7 750 45C800 43.3 850 53.7 875 58.8L900 64L900 101L875 101C850 101 800 101 750 101C700 101 650 101 600 101C550 101 500 101 450 101C400 101 350 101 300 101C250 101 200 101 150 101C100 101 50 101 25 101L0 101Z" fill="#106ea5" stroke-linecap="round" stroke-linejoin="miter"></path></svg>