<svg id="visual" viewBox="0 0 900 100" width="900" height="100" xmlns="http://www.w3.org/2000/svg" xmlns:xlink="http://www.w3.org/1999/xlink" version="1.1"><path d="M0 32L25 35C50 38 100 44 150 45.8C200 47.7 250 45.3 300 47.5C350 49.7 400 56.3 450 58.3C500 60.3 550 57.7 600 53C650 48.3 700 41.7 750 37.7C800 33.7 850 32.3 875 31.7L900 31L900 101L875 101C850 101 800 101 750 101C700 101 650 101 600 101C550 101 500 101 450 101C400 101 350 101 300 101C250 101 200 101 150 101C100 101 50 101 25 101L0 101Z" fill="#106ea5" stroke-linecap="round" stroke-linejoin="miter"></path></svg>