<svg id="visual" viewBox="0 0 900 100" width="900" height="100" xmlns="http://www.w3.org/2000/svg" xmlns:xlink="http://www.w3.org/1999/xlink" version="1.1"><rect x="0" y="0" width="900" height="100" fill="#f5f5f5"></rect><path d="M0 57L21.5 55.2C43 53.3 86 49.7 128.8 46.7C171.7 43.7 214.3 41.3 257.2 44.5C300 47.7 343 56.3 385.8 60.3C428.7 64.3 471.3 63.7 514.2 59.5C557 55.3 600 47.7 642.8 46.2C685.7 44.7 728.3 49.3 771.2 53C814 56.7 857 59.3 878.5 60.7L900 62L900 101L878.5 101C857 101 814 101 771.2 101C728.3 101 685.7 101 642.8 101C600 101 557 101 514.2 101C471.3 101 428.7 101 385.8 101C343 101 300 101 257.2 101C214.3 101 171.7 101 128.8 101C86 101 43 101 21.5 101L0 101Z" fill="#106ea5" stroke-linecap="round" stroke-linejoin="miter"></path></svg>