<svg id="visual" viewBox="0 0 900 90" width="900" height="90" xmlns="http://www.w3.org/2000/svg" xmlns:xlink="http://www.w3.org/1999/xlink" version="1.1"><rect x="0" y="0" width="900" height="90" fill="#fffafa"></rect><path d="M0 28L30 31.5C60 35 120 42 180 50C240 58 300 67 360 62.7C420 58.3 480 40.7 540 34C600 27.3 660 31.7 720 36C780 40.3 840 44.7 870 46.8L900 49L900 0L870 0C840 0 780 0 720 0C660 0 600 0 540 0C480 0 420 0 360 0C300 0 240 0 180 0C120 0 60 0 30 0L0 0Z" fill="#106ea5" stroke-linecap="round" stroke-linejoin="miter"></path></svg>