<svg id="visual" viewBox="0 0 900 100" width="900" height="100" xmlns="http://www.w3.org/2000/svg" xmlns:xlink="http://www.w3.org/1999/xlink" version="1.1"><rect x="0" y="0" width="900" height="100" fill="#f5f5f5"></rect><path d="M0 75L25 75.2C50 75.3 100 75.7 150 69.5C200 63.3 250 50.7 300 50.5C350 50.3 400 62.7 450 63.2C500 63.7 550 52.3 600 46.5C650 40.7 700 40.3 750 43.7C800 47 850 54 875 57.5L900 61L900 0L875 0C850 0 800 0 750 0C700 0 650 0 600 0C550 0 500 0 450 0C400 0 350 0 300 0C250 0 200 0 150 0C100 0 50 0 25 0L0 0Z" fill="#106ea5" stroke-linecap="round" stroke-linejoin="miter"></path></svg>