<svg id="visual" viewBox="0 0 900 100" width="900" height="100" xmlns="http://www.w3.org/2000/svg" xmlns:xlink="http://www.w3.org/1999/xlink" version="1.1"><rect x="0" y="0" width="900" height="100" fill="#106ea5"></rect><path d="M0 39L21.5 39.7C43 40.3 86 41.7 128.8 38.7C171.7 35.7 214.3 28.3 257.2 34.3C300 40.3 343 59.7 385.8 65.3C428.7 71 471.3 63 514.2 57.3C557 51.7 600 48.3 642.8 50.5C685.7 52.7 728.3 60.3 771.2 56.2C814 52 857 36 878.5 28L900 20L900 0L878.5 0C857 0 814 0 771.2 0C728.3 0 685.7 0 642.8 0C600 0 557 0 514.2 0C471.3 0 428.7 0 385.8 0C343 0 300 0 257.2 0C214.3 0 171.7 0 128.8 0C86 0 43 0 21.5 0L0 0Z" fill="#fffafa" stroke-linecap="round" stroke-linejoin="miter"></path></svg>