<svg id="visual" viewBox="0 0 900 100" width="900" height="100" xmlns="http://www.w3.org/2000/svg" xmlns:xlink="http://www.w3.org/1999/xlink" version="1.1"><rect x="0" y="0" width="900" height="100" fill="#fffafa"></rect><path d="M0 23L25 22C50 21 100 19 150 25.2C200 31.3 250 45.7 300 55.2C350 64.7 400 69.3 450 63.2C500 57 550 40 600 38.2C650 36.3 700 49.7 750 49.8C800 50 850 37 875 30.5L900 24L900 0L875 0C850 0 800 0 750 0C700 0 650 0 600 0C550 0 500 0 450 0C400 0 350 0 300 0C250 0 200 0 150 0C100 0 50 0 25 0L0 0Z" fill="#106ea5" stroke-linecap="round" stroke-linejoin="miter"></path></svg>