<svg id="visual" viewBox="0 0 900 100" width="900" height="100" xmlns="http://www.w3.org/2000/svg" xmlns:xlink="http://www.w3.org/1999/xlink" version="1.1"><path d="M0 48L21.5 45.3C43 42.7 86 37.3 128.8 34.3C171.7 31.3 214.3 30.7 257.2 37.3C300 44 343 58 385.8 58.5C428.7 59 471.3 46 514.2 40C557 34 600 35 642.8 40.2C685.7 45.3 728.3 54.7 771.2 53C814 51.3 857 38.7 878.5 32.3L900 26L900 101L878.5 101C857 101 814 101 771.2 101C728.3 101 685.7 101 642.8 101C600 101 557 101 514.2 101C471.3 101 428.7 101 385.8 101C343 101 300 101 257.2 101C214.3 101 171.7 101 128.8 101C86 101 43 101 21.5 101L0 101Z" fill="#106ea5" stroke-linecap="round" stroke-linejoin="miter"></path></svg>