<svg id="visual" viewBox="0 0 900 90" width="900" height="90" xmlns="http://www.w3.org/2000/svg" xmlns:xlink="http://www.w3.org/1999/xlink" version="1.1"><rect x="0" y="0" width="900" height="90" fill="#fffafa"></rect><path d="M0 22L25 31.2C50 40.3 100 58.7 150 61C200 63.3 250 49.7 300 39.3C350 29 400 22 450 20.8C500 19.7 550 24.3 600 28.8C650 33.3 700 37.7 750 36.5C800 35.3 850 28.7 875 25.3L900 22L900 0L875 0C850 0 800 0 750 0C700 0 650 0 600 0C550 0 500 0 450 0C400 0 350 0 300 0C250 0 200 0 150 0C100 0 50 0 25 0L0 0Z" fill="#106ea5" stroke-linecap="round" stroke-linejoin="miter"></path></svg>