<svg id="visual" viewBox="0 0 900 100" width="900" height="100" xmlns="http://www.w3.org/2000/svg" xmlns:xlink="http://www.w3.org/1999/xlink" version="1.1"><rect x="0" y="0" width="900" height="100" fill="#106ea5"></rect><path d="M0 59L21.5 58.3C43 57.7 86 56.3 128.8 59.3C171.7 62.3 214.3 69.7 257.2 63.7C300 57.7 343 38.3 385.8 32.7C428.7 27 471.3 35 514.2 40.7C557 46.3 600 49.7 642.8 47.5C685.7 45.3 728.3 37.7 771.2 41.8C814 46 857 62 878.5 70L900 78L900 101L878.5 101C857 101 814 101 771.2 101C728.3 101 685.7 101 642.8 101C600 101 557 101 514.2 101C471.3 101 428.7 101 385.8 101C343 101 300 101 257.2 101C214.3 101 171.7 101 128.8 101C86 101 43 101 21.5 101L0 101Z" fill="#fffafa" stroke-linecap="round" stroke-linejoin="miter"></path></svg>