<svg id="visual" viewBox="0 0 900 100" width="900" height="100" xmlns="http://www.w3.org/2000/svg" xmlns:xlink="http://www.w3.org/1999/xlink" version="1.1"><path d="M0 36L21.5 36.3C43 36.7 86 37.3 128.8 35.3C171.7 33.3 214.3 28.7 257.2 32.2C300 35.7 343 47.3 385.8 52.3C428.7 57.3 471.3 55.7 514.2 52.5C557 49.3 600 44.7 642.8 44.7C685.7 44.7 728.3 49.3 771.2 51.3C814 53.3 857 52.7 878.5 52.3L900 52L900 0L878.5 0C857 0 814 0 771.2 0C728.3 0 685.7 0 642.8 0C600 0 557 0 514.2 0C471.3 0 428.7 0 385.8 0C343 0 300 0 257.2 0C214.3 0 171.7 0 128.8 0C86 0 43 0 21.5 0L0 0Z" fill="#fffafa" stroke-linecap="round" stroke-linejoin="miter"></path></svg>